<?xml version="1.0" encoding="utf-8"?>
<!-- Generator: Adobe Illustrator 19.2.1, SVG Export Plug-In . SVG Version: 6.00 Build 0)  -->
<svg version="1.1" xmlns="http://www.w3.org/2000/svg" xmlns:xlink="http://www.w3.org/1999/xlink" x="0px" y="0px"
	 viewBox="0 0 170.1 170.1" style="enable-background:new 0 0 170.1 170.1;" xml:space="preserve">
<style type="text/css">
	.st0{fill:#3969AC;}
	.st1{fill:none;stroke:#3969AC;stroke-width:2.5;stroke-miterlimit:10;}
	.st2{font-family:'VNI-Swiss-Condense';}
	.st3{font-size:90px;}
	.st4{opacity:0.25;fill:#3969AC;}
</style>
<g id="Capa_1">
	<path class="st0" d="M97.1,166.3H73.9c-5.5,0-9.9-4.4-9.9-9.9v-40.9h43.1v40.9C107.1,161.8,102.6,166.3,97.1,166.3z"/>
	<path class="st0" d="M97.1,3.9H73.9c-5.5,0-9.9,4.4-9.9,9.9v41.8h43.1V13.8C107.1,8.3,102.6,3.9,97.1,3.9z"/>
	<path class="st0" d="M71.6,45"/>
	<path class="st1" d="M152.9,168.9L17,168.7c-8.7,0-15.8-7.1-15.8-15.9L1.4,17c0-8.7,7.1-15.8,15.9-15.8l135.9,0.2
		c8.7,0,15.8,7.1,15.8,15.9l-0.2,135.9C168.7,161.9,161.6,169,152.9,168.9z"/>
</g>
<g id="Capa_3">
	<g>
		<text transform="matrix(1 0 0 1 60.6563 112.9675)" class="st0 st2 st3">m</text>
	</g>
</g>
<g id="Capa_2">
	<path d="M85,85"/>
	<g>
		<text transform="matrix(1 0 0 1 15.2052 111.7653)" class="st0 st2 st3">c</text>
	</g>
	<g>
		<text transform="matrix(1 0 0 1 121.4569 111.7653)" class="st0 st2 st3">s</text>
	</g>
</g>
<g id="Capa_4">
	<path class="st4" d="M8.6,73.4v23.3c0,5.5,4.4,9.9,9.9,9.9h41.3V63.5H18.5C13.1,63.5,8.6,67.9,8.6,73.4z"/>
	<path class="st4" d="M161.1,73.5v23.3c0,5.5-4.4,9.9-9.9,9.9h-41.3V63.5h41.3C156.7,63.5,161.1,68,161.1,73.5z"/>
</g>
<g id="Capa_5">
</g>
</svg>
