<?xml version="1.0" encoding="UTF-8" standalone="no"?>
<svg
   xmlns:dc="http://purl.org/dc/elements/1.1/"
   xmlns:cc="http://creativecommons.org/ns#"
   xmlns:rdf="http://www.w3.org/1999/02/22-rdf-syntax-ns#"
   xmlns:svg="http://www.w3.org/2000/svg"
   xmlns="http://www.w3.org/2000/svg"
   xmlns:sodipodi="http://sodipodi.sourceforge.net/DTD/sodipodi-0.dtd"
   xmlns:inkscape="http://www.inkscape.org/namespaces/inkscape"
   version="1.1"
   x="0px"
   y="0px"
   viewBox="0 0 170.1 170.1"
   style="enable-background:new 0 0 170.1 170.1;"
   xml:space="preserve"
   id="svg84"
   sodipodi:docname="logo_cms.svg"
   inkscape:version="1.0.1 (3bc2e813f5, 2020-09-07)"><metadata
   id="metadata90"><rdf:RDF><cc:Work
       rdf:about=""><dc:format>image/svg+xml</dc:format><dc:type
         rdf:resource="http://purl.org/dc/dcmitype/StillImage" /><dc:title></dc:title></cc:Work></rdf:RDF></metadata><defs
   id="defs88" /><sodipodi:namedview
   pagecolor="#ffffff"
   bordercolor="#666666"
   borderopacity="1"
   objecttolerance="10"
   gridtolerance="10"
   guidetolerance="10"
   inkscape:pageopacity="0"
   inkscape:pageshadow="2"
   inkscape:window-width="1366"
   inkscape:window-height="705"
   id="namedview86"
   showgrid="false"
   inkscape:zoom="3.1628454"
   inkscape:cx="85.05"
   inkscape:cy="85.05"
   inkscape:window-x="-8"
   inkscape:window-y="-8"
   inkscape:window-maximized="1"
   inkscape:current-layer="svg84" />
<style
   type="text/css"
   id="style51">
	.st0{fill:#3969AC;}
	.st1{fill:none;stroke:#3969AC;stroke-width:2.5;stroke-miterlimit:10;}
	.st2{font-family:'VNI-Swiss-Condense';}
	.st3{font-size:90px;}
	.st4{opacity:0.25;fill:#3969AC;}
</style>
<g
   id="Capa_1">
	<path
   class="st0"
   d="M97.1,166.3H73.9c-5.5,0-9.9-4.4-9.9-9.9v-40.9h43.1v40.9C107.1,161.8,102.6,166.3,97.1,166.3z"
   id="path53" />
	<path
   class="st0"
   d="M97.1,3.9H73.9c-5.5,0-9.9,4.4-9.9,9.9v41.8h43.1V13.8C107.1,8.3,102.6,3.9,97.1,3.9z"
   id="path55" />
	<path
   class="st0"
   d="M71.6,45"
   id="path57" />
	<path
   class="st1"
   d="M152.9,168.9L17,168.7c-8.7,0-15.8-7.1-15.8-15.9L1.4,17c0-8.7,7.1-15.8,15.9-15.8l135.9,0.2   c8.7,0,15.8,7.1,15.8,15.9l-0.2,135.9C168.7,161.9,161.6,169,152.9,168.9z"
   id="path59" />
</g>


<g
   id="Capa_4">
	<path
   class="st4"
   d="M8.6,73.4v23.3c0,5.5,4.4,9.9,9.9,9.9h41.3V63.5H18.5C13.1,63.5,8.6,67.9,8.6,73.4z"
   id="path78" />
	<path
   class="st4"
   d="M161.1,73.5v23.3c0,5.5-4.4,9.9-9.9,9.9h-41.3V63.5h41.3C156.7,63.5,161.1,68,161.1,73.5z"
   id="path80" />
</g>
<g
   id="Capa_5">
</g>
<text
   xml:space="preserve"
   style="font-style:normal;font-weight:normal;font-size:72.4253px;line-height:1.25;font-family:sans-serif;fill:#3969ac;fill-opacity:1;stroke:none;stroke-width:1.81063;"
   x="8.9801903"
   y="111.42628"
   id="text94"
   transform="scale(0.9933673,1.006677)"><tspan
     sodipodi:role="line"
     id="tspan92"
     x="8.9801903"
     y="111.42628"
     style="font-style:normal;font-variant:normal;font-weight:bold;font-stretch:normal;font-family:Arial;-inkscape-font-specification:'Arial Bold';stroke-width:1.81063;fill:#3969ac;fill-opacity:1;">C</tspan></text><text
   xml:space="preserve"
   style="font-style:normal;font-weight:normal;font-size:72.4253px;line-height:1.25;font-family:sans-serif;fill:#3969ac;fill-opacity:1;stroke:none;stroke-width:1.81063;"
   x="112.12426"
   y="110.40764"
   id="text94-2"
   transform="scale(0.99336729,1.006677)"><tspan
     sodipodi:role="line"
     id="tspan92-4"
     x="112.12426"
     y="110.40764"
     style="font-style:normal;font-variant:normal;font-weight:bold;font-stretch:normal;font-family:Arial;-inkscape-font-specification:'Arial Bold';stroke-width:1.81063;fill:#3969ac;fill-opacity:1;">S</tspan></text><text
   xml:space="preserve"
   style="font-style:normal;font-weight:normal;font-size:74.962px;line-height:1.25;font-family:sans-serif;fill:#3969ac;fill-opacity:1;stroke:none;stroke-width:1.87405"
   x="79.465034"
   y="84.785057"
   id="text94-25"
   transform="scale(0.76067016,1.3146303)"><tspan
     sodipodi:role="line"
     id="tspan92-44"
     x="79.465034"
     y="84.785057"
     style="font-style:normal;font-variant:normal;font-weight:bold;font-stretch:normal;font-family:Arial;-inkscape-font-specification:'Arial Bold';fill:#3969ac;fill-opacity:1;stroke-width:1.87405">m</tspan></text></svg>
